<?xml version="1.0" encoding="UTF-8" standalone="no"?>
<!-- Created with Inkscape (http://www.inkscape.org/) -->

<svg
   width="500"
   height="500"
   viewBox="0 0 132.29167 132.29167"
   version="1.1"
   id="svg36"
   inkscape:version="1.2.2 (b0a8486541, 2022-12-01)"
   sodipodi:docname="fbbenchmark.svg"
   xmlns:inkscape="http://www.inkscape.org/namespaces/inkscape"
   xmlns:sodipodi="http://sodipodi.sourceforge.net/DTD/sodipodi-0.dtd"
   xmlns="http://www.w3.org/2000/svg"
   xmlns:svg="http://www.w3.org/2000/svg">
  <sodipodi:namedview
     id="namedview38"
     pagecolor="#ffffff"
     bordercolor="#666666"
     borderopacity="1.0"
     inkscape:showpageshadow="2"
     inkscape:pageopacity="0.0"
     inkscape:pagecheckerboard="0"
     inkscape:deskcolor="#d1d1d1"
     inkscape:document-units="mm"
     showgrid="false"
     inkscape:zoom="0.84096521"
     inkscape:cx="292.52102"
     inkscape:cy="479.80582"
     inkscape:window-width="1920"
     inkscape:window-height="1120"
     inkscape:window-x="0"
     inkscape:window-y="0"
     inkscape:window-maximized="1"
     inkscape:current-layer="layer1" />
  <defs
     id="defs33">
    <linearGradient
       x1="53.011278"
       y1="0"
       x2="85.649404"
       y2="68.103927"
       id="linearGradient-1"
       gradientTransform="scale(1.0646229,0.93929973)"
       gradientUnits="userSpaceOnUse">
      <stop
         stop-color="#E4007B"
         offset="0%"
         id="stop2" />
      <stop
         stop-color="#F9B400"
         offset="70%"
         id="stop4" />
      <stop
         stop-color="#F9B400"
         offset="100%"
         id="stop6" />
    </linearGradient>
    <clipPath
       clipPathUnits="userSpaceOnUse"
       id="clipPath166">
      <path
         d="M 64.09713,512 H 447.9029 c 22.2879,0 30.3701,-2.3206 38.5182,-6.6783 8.1482,-4.3577 14.5429,-10.7524 18.9006,-18.9006 C 509.6794,478.273 512,470.1908 512,447.9029 V 64.09713 C 512,41.80916 509.6794,33.72701 505.3217,25.57886 500.964,17.43071 494.5693,11.03599 486.4211,6.678318 478.273,2.32064 470.1908,0 447.9029,0 H 64.09713 C 41.80916,0 33.72701,2.32064 25.57886,6.678318 17.43071,11.03599 11.03599,17.43071 6.678318,25.57886 2.32064,33.72701 0,41.80916 0,64.09713 V 447.9029 c 0,22.2879 2.32064,30.3701 6.678318,38.5182 4.357672,8.1482 10.752392,14.5429 18.900542,18.9006 8.14815,4.3577 16.2303,6.6783 38.51827,6.6783 z"
         clip-rule="evenodd"
         id="path164" />
    </clipPath>
    <clipPath
       clipPathUnits="userSpaceOnUse"
       id="clipPath172">
      <path
         d="M 0,0 H 512 V 512 H 0 Z"
         id="path170" />
    </clipPath>
    <clipPath
       clipPathUnits="userSpaceOnUse"
       id="clipPath182">
      <path
         d="M 310.6214,362 424.7089,162.0939 H 310.6961 l -57.0086,99.4988 z"
         clip-rule="evenodd"
         id="path180" />
    </clipPath>
    <clipPath
       clipPathUnits="userSpaceOnUse"
       id="clipPath188">
      <path
         d="M 0,0 H 512 V 512 H 0 Z"
         id="path186" />
    </clipPath>
    <clipPath
       clipPathUnits="userSpaceOnUse"
       id="clipPath198">
      <path
         d="M 197.1006,362 83.51535,162.0939 H 197.1006 L 310.6214,362 Z"
         clip-rule="evenodd"
         id="path196" />
    </clipPath>
    <clipPath
       clipPathUnits="userSpaceOnUse"
       id="clipPath204">
      <path
         d="M 0,0 H 512 V 512 H 0 Z"
         id="path202" />
    </clipPath>
  </defs>
  <g
     inkscape:label="Vrstva 1"
     inkscape:groupmode="layer"
     id="layer1">
    <g
       id="g221"
       transform="matrix(0.04480837,-0.03581276,-0.03581276,-0.04480837,29.864143,78.81931)">
      <g
         id="g158" />
      <g
         id="g160">
        <g
           id="g162"
           clip-path="url(#clipPath166)">
          <g
             id="g168"
             clip-path="url(#clipPath172)">
            <path
               d="M -1,513 H 513 V -1 H -1 Z"
               style="fill:#f6b102;fill-opacity:1;fill-rule:nonzero;stroke:none"
               id="path174" />
          </g>
        </g>
      </g>
      <g
         id="g176">
        <g
           id="g178"
           clip-path="url(#clipPath182)">
          <g
             id="g184"
             clip-path="url(#clipPath188)">
            <path
               d="M 252.6875,363 H 425.7089 V 161.0939 H 252.6875 Z"
               style="fill:#fdebbf;fill-opacity:1;fill-rule:nonzero;stroke:none"
               id="path190" />
          </g>
        </g>
      </g>
      <g
         id="g192">
        <g
           id="g194"
           clip-path="url(#clipPath198)">
          <g
             id="g200"
             clip-path="url(#clipPath204)">
            <path
               d="M 82.51535,363 H 311.6214 V 161.0939 H 82.51535 Z"
               style="fill:#ffffff;fill-opacity:1;fill-rule:nonzero;stroke:none"
               id="path206" />
          </g>
        </g>
      </g>
    </g>
    <path
       id="path3270"
       class="fil1"
       inkscape:connector-curvature="0"
       style="fill:#000000;fill-rule:evenodd;stroke-width:2.87975"
       d="M 59.879774,55.759537 41.089528,31.98439 2.7542755,61.962502 c -1.80999254,-2.34464 -2.71028772,-6.891254 -1.2066219,-9.741 2.4409522,-4.309013 4.4860182,-6.384421 7.5647026,-10.22943 l 20.6910728,-24.69151 0.0741,0.09518 L 44.391414,5.8943388 54.7619,19.155928 74.653551,3.5995143 C 75.571395,15.704176 75.571395,15.704811 60.984546,27.111784 l 8.296556,10.608934 c 14.58675,-11.40782 14.58675,-11.40782 26.112902,-7.59908 L 75.503927,45.676573 131.50348,117.28434 116.91609,128.69215 71.286507,70.345649 42.336428,84.476555 c -4.473967,2.061241 -6.980176,3.545226 -11.75053,4.876008 -3.127966,0.772968 -7.323732,-1.197339 -9.163326,-3.519012 C 34.166343,75.431871 46.73203,65.63896 59.878678,55.760274 Z" />
  </g>
</svg>
