<?xml version="1.0" encoding="UTF-8" standalone="no"?>
<!-- Created with Inkscape (http://www.inkscape.org/) -->

<svg
   version="1.1"
   id="svg2"
   xml:space="preserve"
   width="120"
   height="120"
   viewBox="0 0 120 120"
   sodipodi:docname="abraflexitools.svg"
   inkscape:version="1.2.2 (b0a8486541, 2022-12-01)"
   xmlns:inkscape="http://www.inkscape.org/namespaces/inkscape"
   xmlns:sodipodi="http://sodipodi.sourceforge.net/DTD/sodipodi-0.dtd"
   xmlns="http://www.w3.org/2000/svg"
   xmlns:svg="http://www.w3.org/2000/svg"
   xmlns:rdf="http://www.w3.org/1999/02/22-rdf-syntax-ns#"
   xmlns:cc="http://creativecommons.org/ns#"
   xmlns:dc="http://purl.org/dc/elements/1.1/"><metadata
     id="metadata8"><rdf:RDF><cc:Work
         rdf:about=""><dc:format>image/svg+xml</dc:format><dc:type
           rdf:resource="http://purl.org/dc/dcmitype/StillImage" /><dc:title /></cc:Work></rdf:RDF></metadata><defs
     id="defs6"><clipPath
       clipPathUnits="userSpaceOnUse"
       id="clipPath166"><path
         d="M 64.09713,512 H 447.9029 c 22.2879,0 30.3701,-2.3206 38.5182,-6.6783 8.1482,-4.3577 14.5429,-10.7524 18.9006,-18.9006 C 509.6794,478.273 512,470.1908 512,447.9029 V 64.09713 C 512,41.80916 509.6794,33.72701 505.3217,25.57886 500.964,17.43071 494.5693,11.03599 486.4211,6.678318 478.273,2.32064 470.1908,0 447.9029,0 H 64.09713 C 41.80916,0 33.72701,2.32064 25.57886,6.678318 17.43071,11.03599 11.03599,17.43071 6.678318,25.57886 2.32064,33.72701 0,41.80916 0,64.09713 V 447.9029 c 0,22.2879 2.32064,30.3701 6.678318,38.5182 4.357672,8.1482 10.752392,14.5429 18.900542,18.9006 8.14815,4.3577 16.2303,6.6783 38.51827,6.6783 z"
         clip-rule="evenodd"
         id="path164" /></clipPath><clipPath
       clipPathUnits="userSpaceOnUse"
       id="clipPath172"><path
         d="M 0,0 H 512 V 512 H 0 Z"
         id="path170" /></clipPath><clipPath
       clipPathUnits="userSpaceOnUse"
       id="clipPath182"><path
         d="M 310.6214,362 424.7089,162.0939 H 310.6961 l -57.0086,99.4988 z"
         clip-rule="evenodd"
         id="path180" /></clipPath><clipPath
       clipPathUnits="userSpaceOnUse"
       id="clipPath188"><path
         d="M 0,0 H 512 V 512 H 0 Z"
         id="path186" /></clipPath><clipPath
       clipPathUnits="userSpaceOnUse"
       id="clipPath198"><path
         d="M 197.1006,362 83.51535,162.0939 H 197.1006 L 310.6214,362 Z"
         clip-rule="evenodd"
         id="path196" /></clipPath><clipPath
       clipPathUnits="userSpaceOnUse"
       id="clipPath204"><path
         d="M 0,0 H 512 V 512 H 0 Z"
         id="path202" /></clipPath></defs><sodipodi:namedview
     pagecolor="#ffffff"
     bordercolor="#666666"
     borderopacity="1"
     objecttolerance="10"
     gridtolerance="10"
     guidetolerance="10"
     inkscape:pageopacity="0"
     inkscape:pageshadow="2"
     inkscape:window-width="1920"
     inkscape:window-height="1120"
     id="namedview4"
     showgrid="false"
     inkscape:zoom="5.3450696"
     inkscape:cx="53.694343"
     inkscape:cy="53.974975"
     inkscape:window-x="0"
     inkscape:window-y="0"
     inkscape:window-maximized="1"
     inkscape:current-layer="g10"
     inkscape:showpageshadow="2"
     inkscape:pagecheckerboard="0"
     inkscape:deskcolor="#d1d1d1" /><g
     id="g10"
     inkscape:groupmode="layer"
     inkscape:label="ink_ext_XXXXXX"
     transform="matrix(1.3333333,0,0,-1.3333333,0,120)"><g
       id="g221"
       transform="matrix(0.17399782,0,0,0.17399782,0.45656003,0.45656003)"><g
         id="g158" /><g
         id="g160"><g
           id="g162"
           clip-path="url(#clipPath166)"><g
             id="g168"
             clip-path="url(#clipPath172)"><path
               d="M -1,513 H 513 V -1 H -1 Z"
               style="fill:#f6b102;fill-opacity:1;fill-rule:nonzero;stroke:none"
               id="path174" /></g></g></g><g
         id="g176"><g
           id="g178"
           clip-path="url(#clipPath182)"><g
             id="g184"
             clip-path="url(#clipPath188)"><path
               d="M 252.6875,363 H 425.7089 V 161.0939 H 252.6875 Z"
               style="fill:#fdebbf;fill-opacity:1;fill-rule:nonzero;stroke:none"
               id="path190" /></g></g></g><g
         id="g192"><g
           id="g194"
           clip-path="url(#clipPath198)"><g
             id="g200"
             clip-path="url(#clipPath204)"><path
               d="M 82.51535,363 H 311.6214 V 161.0939 H 82.51535 Z"
               style="fill:#ffffff;fill-opacity:1;fill-rule:nonzero;stroke:none"
               id="path206" /></g></g></g></g><path
       id="path3919"
       sodipodi:nodetypes="ccscscscsscscssssssscscsscscscsssssscscsssscscsssscscsssssccscsscssscccsscsscccsssssssssssscsssscscccccccsscssssssscscccccccccccsscsscccsscscccsssscccssssscccccccccscccscscccccccsss"
       style="fill:#e12d0e;stroke-width:0.181554"
       inkscape:connector-curvature="0"
       d="m 38.804211,11.565122 1.775619,2.846775 0.507121,-0.07433 c 1.218282,-0.178577 2.610026,-0.278055 3.90342,-0.279032 1.26104,0 1.76585,0.03383 3.952986,0.272111 l 0.6681,0.0728 1.637307,-2.652512 c 0.900505,-1.458902 1.705115,-2.7451048 1.788032,-2.8582138 0.145135,-0.198057 0.199663,-0.192479 1.479115,0.15129 1.807363,0.485601 3.932108,1.2338988 5.697906,2.0067188 1.939732,0.848971 4.821003,2.428654 4.819361,2.642345 0,0.04518 -0.343111,1.522192 -0.761738,3.282321 l -0.761115,3.200264 1.123618,0.915234 c 1.401487,1.14154 3.314457,3.055923 4.402695,4.405599 0.456104,0.565759 0.900627,1.028666 0.987799,1.028666 0.08723,0 1.557032,-0.325708 3.266342,-0.723782 1.709264,-0.398095 3.128015,-0.723803 3.152513,-0.723803 0.119147,0 1.276154,2.077164 2.059746,3.697718 1.057053,2.186278 1.835326,4.249099 2.446625,6.486034 0.350786,1.283259 0.423019,1.684733 0.314844,1.750313 -0.0772,0.04682 -1.368007,0.852378 -2.86855,1.790162 -2.176842,1.36055 -2.722959,1.749385 -2.702625,1.924296 0.341333,2.941 0.326363,6.753825 -0.03343,8.528883 -0.05623,0.277124 0.08313,0.380864 2.690453,2.00436 1.512351,0.941651 2.802654,1.746264 2.867471,1.78804 0.246304,0.158852 -0.794169,3.710065 -1.813716,6.190461 -0.734337,1.78646 -2.358222,4.969327 -2.951543,5.78487 -0.01064,0.01383 -1.493537,-0.325962 -3.29666,-0.755084 l -3.278332,-0.780212 -0.334069,0.419208 c -1.625937,2.040491 -3.298286,3.72804 -5.261438,5.309561 -0.444006,0.357697 -0.807299,0.668446 -0.807299,0.690559 0,0.02213 0.32571,1.442105 0.72379,3.155418 0.39808,1.713382 0.72379,3.188277 0.72379,3.277604 0,0.313563 -3.282861,2.088598 -5.70207,3.082971 -2.463328,1.012566 -6.031428,2.060283 -6.19246,1.818267 -0.04179,-0.06278 -0.846569,-1.353396 -1.788457,-2.868012 -1.113334,-1.790293 -1.763312,-2.73439 -1.857668,-2.698263 -0.0798,0.03062 -1.079213,0.11825 -2.220958,0.194698 -1.666812,0.111625 -2.474584,0.111214 -4.099678,-0.002 -1.113168,-0.07758 -2.151238,-0.166482 -2.306829,-0.197544 -0.264835,-0.0529 -0.392161,0.120089 -1.994017,2.708787 -0.941139,1.520884 -1.746785,2.806288 -1.790344,2.8564 -0.178412,0.205371 -3.776695,-0.851091 -6.051572,-1.776748 -2.421028,-0.985116 -5.856404,-2.841325 -5.858945,-3.165765 -0.002,-0.09597 0.324349,-1.541941 0.722444,-3.213333 0.398074,-1.671316 0.723782,-3.100404 0.723782,-3.175931 0,-0.07544 -0.413379,-0.456427 -0.918664,-0.846624 -1.181809,-0.912674 -3.730942,-3.46188 -4.643616,-4.643617 -0.390218,-0.505268 -0.789055,-0.917885 -0.886314,-0.916942 -0.09726,10e-4 -1.579904,0.323803 -3.294671,0.717467 l -3.117831,0.715746 -0.189147,-0.244208 c -0.336062,-0.433966 -1.623411,-2.772586 -2.187958,-3.974658 -0.768717,-1.636822 -1.5923042,-3.902148 -2.1249092,-5.8446 -0.249293,-0.909226 -0.453253,-1.686532 -0.453253,-1.727381 0,-0.04085 1.281194,-0.871826 2.8471392,-1.846591 l 2.847132,-1.772354 -0.06682,-0.668119 c -0.29826,-2.981851 -0.286984,-5.466786 0.03521,-7.761634 l 0.08915,-0.635097 -2.291221,-1.419229 C 10.889637,38.254876 9.5989658,37.451477 9.2816048,37.25012 l -0.576922,-0.366104 0.375089,-1.421246 c 0.505067,-1.913767 1.2868772,-4.130545 2.0570152,-5.83262 0.651288,-1.439581 1.998367,-3.903057 2.396518,-4.382358 l 0.222713,-0.268194 3.229307,0.768267 3.229312,0.768266 0.278396,-0.353959 c 1.511911,-1.922299 3.467685,-3.912497 5.206072,-5.297212 0.599764,-0.477798 0.902215,-0.791923 0.870714,-0.904306 -0.150333,-0.536369 -1.399948,-6.146343 -1.399948,-6.284688 0,-0.330123 3.673394,-2.294852 6.013085,-3.216241 1.814909,-0.7146678 5.081165,-1.7229858 5.623289,-1.7359478 0.172586,-0.0041 0.622275,0.635273 1.998367,2.8415098 z m 3.016162,8.452813 c -8.487852,1.155086 -15.664517,6.277246 -19.335549,13.80086 -1.883079,3.858575 -2.598044,6.940826 -2.596046,11.191017 0.002,4.262353 0.68027,7.20644 2.561917,11.120754 1.210351,2.517798 2.530866,4.384905 4.604218,6.510543 4.050118,4.151969 9.487675,6.802119 15.240225,7.427573 1.597338,0.173701 5.361669,0.08129 6.814105,-0.167252 7.007453,-1.199203 13.23786,-5.266168 17.065213,-11.139636 1.394055,-2.139259 2.823535,-5.50564 3.404318,-8.017445 1.319193,-5.704986 0.598108,-11.811751 -2.011251,-17.032714 -3.796304,-7.595691 -11.157426,-12.711531 -19.789438,-13.753834 -1.295864,-0.15646 -4.611302,-0.123038 -5.956619,0.06006 z m 14.588082,8.627828 c 0.203706,0.22509 0.185408,0.248239 -1.653033,2.08915 -1.571136,1.573167 -1.859126,1.912854 -1.859126,2.192814 0,0.277196 0.250255,0.582151 1.529631,1.86402 2.053014,2.056831 1.762987,2.078431 4.154324,-0.309699 1.838594,-1.83624 1.845326,-1.841504 2.053014,-1.612059 0.20448,0.225964 0.198493,0.267448 -0.327078,2.259809 l -0.535358,2.029599 -1.062585,1.079378 -1.062601,1.079377 -2.01271,0.470027 -2.01271,0.470025 -6.352235,6.332618 -6.352228,6.33262 -0.366118,1.527291 c -0.671498,2.801205 -0.545247,2.539948 -1.776329,3.675934 l -1.098554,1.013672 -1.993466,0.5569 c -1.975677,0.551981 -1.995285,0.554995 -2.212422,0.340288 -0.217448,-0.215051 -0.205538,-0.230212 1.642432,-2.089873 1.555358,-1.565108 1.861478,-1.926657 1.861478,-2.198443 0,-0.269827 -0.270115,-0.595842 -1.585356,-1.913403 -1.19566,-1.197804 -1.653814,-1.588165 -1.864015,-1.588165 -0.211765,0 -0.723874,0.444664 -2.134356,1.853307 -1.857666,1.855307 -2.09968,2.018341 -2.283408,1.539437 -0.03705,-0.09658 0.17095,-1.094737 0.462239,-2.218051 l 0.529661,-2.042488 1.071356,-1.058572 1.071392,-1.05857 2.025054,-0.475529 2.025059,-0.475525 6.334073,-6.355678 6.334073,-6.355678 0.471658,-2.0256 0.471658,-2.025606 1.114846,-1.027849 1.114789,-1.027853 1.91341,-0.530101 c 1.052388,-0.291559 1.968227,-0.533516 2.0354,-0.537693 0.06702,-0.0041 0.214617,0.09483 0.327928,0.220025 z m -20.77164,1.343956 c 0.651706,0.301546 1.128594,0.738784 4.787772,4.389442 l 4.063913,4.054476 -0.662292,0.669282 -0.662314,0.669283 -1.690267,-1.66836 c -1.538859,-1.518868 -1.725696,-1.668356 -2.085155,-1.668356 -0.29399,0 -0.453884,0.07497 -0.625694,0.293389 -0.484165,0.615509 -0.366302,0.824387 1.563768,2.771068 l 1.547858,1.561258 -0.69686,0.686241 -0.696876,0.686239 -1.749661,-1.662894 c -1.886531,-1.792958 -2.096226,-1.907047 -2.613839,-1.420772 -0.174273,0.163715 -0.257737,0.368428 -0.257737,0.632173 0,0.353705 0.155616,0.546842 1.669811,2.072444 l 1.669777,1.682373 -0.669065,0.662093 -0.669079,0.662092 -4.011628,-4.006723 c -4.382001,-4.376554 -4.555747,-4.596414 -4.805388,-6.078082 -0.174507,-1.036333 0.01398,-1.810769 0.644521,-2.649603 0.538469,-0.716325 1.625277,-1.767414 2.261986,-2.187734 1.023437,-0.67549 2.426477,-0.73241 3.686285,-0.149527 z m 12.916871,19.139472 -3.841692,3.770159 -0.53076,-0.518028 -0.530715,-0.51803 3.814637,-3.815912 3.814641,-3.815911 0.557728,0.563727 0.557729,0.563727 z m 4.650874,2.869649 2.784508,2.868379 1.321078,0.431827 1.321093,0.431829 1.162994,1.691977 c 0.639642,0.930593 1.180061,1.743268 1.200957,1.805959 0.02097,0.06269 -0.51323,0.626271 -1.186976,1.252417 l -1.224969,1.138438 -1.719431,-1.232393 -1.719431,-1.232391 -0.427943,-1.225765 -0.427958,-1.225765 -2.922121,-2.921937 -2.922115,-2.921937 0.859531,-0.864599 c 0.47275,-0.475527 0.91736,-0.864618 0.988034,-0.864618 0.07068,0 1.381507,1.290782 2.912855,2.86838 z" /></g></svg>
