<?xml version="1.0" encoding="UTF-8" standalone="no"?>
<!-- Created with Inkscape (http://www.inkscape.org/) -->

<svg
   width="500"
   height="500"
   viewBox="0 0 132.29167 132.29167"
   version="1.1"
   id="svg36"
   inkscape:version="1.2.2 (b0a8486541, 2022-12-01)"
   sodipodi:docname="fbcp.svg"
   xmlns:inkscape="http://www.inkscape.org/namespaces/inkscape"
   xmlns:sodipodi="http://sodipodi.sourceforge.net/DTD/sodipodi-0.dtd"
   xmlns:xlink="http://www.w3.org/1999/xlink"
   xmlns="http://www.w3.org/2000/svg"
   xmlns:svg="http://www.w3.org/2000/svg">
  <sodipodi:namedview
     id="namedview38"
     pagecolor="#ffffff"
     bordercolor="#666666"
     borderopacity="1.0"
     inkscape:showpageshadow="2"
     inkscape:pageopacity="0.0"
     inkscape:pagecheckerboard="0"
     inkscape:deskcolor="#d1d1d1"
     inkscape:document-units="mm"
     showgrid="false"
     inkscape:zoom="0.84096521"
     inkscape:cx="369.2186"
     inkscape:cy="477.4276"
     inkscape:window-width="1920"
     inkscape:window-height="1130"
     inkscape:window-x="1920"
     inkscape:window-y="0"
     inkscape:window-maximized="1"
     inkscape:current-layer="layer1" />
  <defs
     id="defs33">
    <linearGradient
       x1="53.011278"
       y1="0"
       x2="85.649404"
       y2="68.103927"
       id="linearGradient-1"
       gradientTransform="scale(1.0646229,0.93929973)"
       gradientUnits="userSpaceOnUse">
      <stop
         stop-color="#E4007B"
         offset="0%"
         id="stop2" />
      <stop
         stop-color="#F9B400"
         offset="70%"
         id="stop4" />
      <stop
         stop-color="#F9B400"
         offset="100%"
         id="stop6" />
    </linearGradient>
    <linearGradient
       inkscape:collect="always"
       xlink:href="#linearGradient-1"
       id="linearGradient517"
       gradientUnits="userSpaceOnUse"
       gradientTransform="scale(1.0646229,0.93929973)"
       x1="53.011278"
       y1="0"
       x2="85.649404"
       y2="68.103927" />
    <filter
       id="filter3232"
       inkscape:collect="always"
       x="-0.080225755"
       y="-0.11153856"
       width="1.1619623"
       height="1.2289985">
      <feGaussianBlur
         id="feGaussianBlur3234"
         stdDeviation="4.3283459"
         inkscape:collect="always" />
    </filter>
    <linearGradient
       inkscape:collect="always"
       xlink:href="#linearGradient-1"
       id="linearGradient644"
       gradientUnits="userSpaceOnUse"
       gradientTransform="scale(1.0646229,0.93929973)"
       x1="53.011278"
       y1="0"
       x2="85.649404"
       y2="68.103927" />
  </defs>
  <g
     inkscape:label="Vrstva 1"
     inkscape:groupmode="layer"
     id="layer1">
    <g
       id="Symbols"
       stroke="none"
       stroke-width="1"
       fill="none"
       fill-rule="evenodd"
       transform="matrix(0.5015231,0,0,0.5015231,8.1152241,83.076515)">
      <g
         id="ABRA-Logo">
        <path
           id="Fill-48"
           class="ABRA-Logo-gradient"
           fill="url(#linearGradient-1)"
           d="M 37.643,0 H 73.95 l 36.198,63.97 H 73.663 Z"
           style="fill:url(#linearGradient644)" />
        <path
           id="Fill-49"
           class="ABRA-Logo-gray"
           fill="#6d6e6d"
           d="M 37.312,0 0.965,63.97 H 37.312 L 73.64,0 Z" />
      </g>
    </g>
    <g
       id="Symbols-5"
       stroke="none"
       stroke-width="1"
       fill="none"
       fill-rule="evenodd"
       transform="matrix(0.5015231,0,0,0.5015231,69.372796,83.513424)">
      <g
         id="ABRA-Logo-3">
        <path
           id="Fill-48-5"
           class="ABRA-Logo-gradient"
           fill="url(#linearGradient-1)"
           d="M 37.643,0 H 73.95 l 36.198,63.97 H 73.663 Z"
           style="fill:url(#linearGradient517)" />
        <path
           id="Fill-49-6"
           class="ABRA-Logo-gray"
           fill="#6d6e6d"
           d="M 37.312,0 0.965,63.97 H 37.312 L 73.64,0 Z" />
      </g>
    </g>
    <g
       id="Page-1"
       stroke="none"
       stroke-width="1"
       fill="none"
       fill-rule="evenodd"
       transform="matrix(2.0822078,0,0,2.0822078,32.830509,6.4173174)">
      <g
         id="Icon/Light/Setting/Company">
        <path
           id="Rectangle"
           d="M 0,0 H 32 V 32 H 0 Z" />
        <path
           d="M 15,4.75 H 6 A 1.246,1.246 0 0 0 4.75,6 v 21.25 h 11.5 V 6 A 1.246,1.246 0 0 0 15,4.75 Z"
           id="svg130-Rectangle"
           stroke="#1e1b18"
           stroke-width="1.5" />
        <path
           d="m 9,15 a 1,1 0 1 1 0,2 1,1 0 0 1 0,-2 z m 3,0 a 1,1 0 1 1 0,2 1,1 0 0 1 0,-2 z M 9,12 a 1,1 0 1 1 0,2 1,1 0 0 1 0,-2 z m 3,0 a 1,1 0 1 1 0,2 1,1 0 0 1 0,-2 z M 9,9 a 1,1 0 1 1 0,2 1,1 0 0 1 0,-2 z m 3,0 a 1,1 0 1 1 0,2 1,1 0 0 1 0,-2 z"
           id="Combined-Shape"
           fill="#004b96" />
        <path
           d="M 12,20.75 8.75,21 v 6.25 h 3.5 z"
           id="svg131-Rectangle"
           stroke="#1e1b18"
           stroke-width="1.5" />
        <path
           d="M 26,14.75 H 18 A 1.246,1.246 0 0 0 16.75,16 v 11.25 h 10.5 V 16 A 1.246,1.246 0 0 0 26,14.75 Z"
           id="svg132-Rectangle"
           stroke="#1e1b18"
           stroke-width="1.5" />
        <path
           d="m 20,22 a 1,1 0 1 1 0,2 1,1 0 0 1 0,-2 z m 3,0 a 1,1 0 1 1 0,2 1,1 0 0 1 0,-2 z m -3,-3 a 1,1 0 1 1 0,2 1,1 0 0 1 0,-2 z m 3,0 a 1,1 0 1 1 0,2 1,1 0 0 1 0,-2 z"
           id="svg133-Combined-Shape"
           fill="#004b96" />
      </g>
    </g>
    <g
       id="g3248"
       transform="matrix(0.26458333,0,0,0.26458333,45.772388,-31.97286)">
      <path
         id="path3242"
         d="m 385.54,459.3 c 63.33,-11.33 101.34,-9.38 125.15,0 -4.08,14 -19.27,24.52 -33.23,36.77 27.4,-13.11 55.19,-25.08 84.15,-36.07 -8.34,-34.82 -36.77,-54.13 -60.81,-78.48 3.52,8.18 8.64,17.16 12.08,25.32 1.73,4.09 2.49,7.79 1.35,10.74 -41.72,-13.9 -83.44,-13.43 -125.16,-2.83 z"
         sodipodi:nodetypes="cccccsccc"
         style="fill:#8e8e8e;fill-rule:evenodd;stroke:#000000;stroke-width:6.8;filter:url(#filter3232)"
         transform="matrix(-1,0,0,1,550.71,3.9286)" />
      <path
         id="path3244"
         sodipodi:nodetypes="cccccsccc"
         style="fill:#0c3bfe;fill-rule:evenodd;stroke:#000000;stroke-width:6.8"
         d="m 155.89,452.51 c -63.335,-11.32 -101.34,-9.38 -125.16,0 4.091,14.01 19.274,24.53 33.238,36.77 -27.399,-13.1 -55.193,-25.08 -84.146,-36.06 8.337,-34.83 36.766,-54.14 60.812,-78.49 -3.521,8.19 -8.649,17.16 -12.088,25.32 -1.725,4.09 -2.491,7.8 -1.347,10.74 41.719,-13.89 83.441,-13.43 125.16,-2.83 l 3.53,44.55 z" />
    </g>
  </g>
</svg>
